<?xml version="1.0" encoding="UTF-8" standalone="no"?>
<!DOCTYPE svg PUBLIC "-//W3C//DTD SVG 1.1//EN" "http://www.w3.org/Graphics/SVG/1.1/DTD/svg11.dtd">
<!-- 由 Microsoft Visio, SVG Export 生成 simpleDSP.svg simpleDSP -->
<svg xmlns="http://www.w3.org/2000/svg" xmlns:xlink="http://www.w3.org/1999/xlink" xmlns:ev="http://www.w3.org/2001/xml-events"
		xmlns:v="http://schemas.microsoft.com/visio/2003/SVGExtensions/" width="11.3514in" height="11.7053in"
		viewBox="0 0 817.301 842.782" xml:space="preserve" color-interpolation-filters="sRGB" class="st20">
	<v:documentProperties v:langID="2052" v:metric="true" v:viewMarkup="false">
		<v:userDefs>
			<v:ud v:nameU="msvSubprocessMaster" v:prompt="" v:val="VT4(Box)"/>
			<v:ud v:nameU="msvNoAutoConnect" v:val="VT0(1):26"/>
		</v:userDefs>
	</v:documentProperties>

	<style type="text/css">
	<![CDATA[
		.st1 {fill:#e8f0d1;stroke:#ffffff;stroke-linecap:round;stroke-linejoin:round;stroke-width:0.5}
		.st2 {fill:#cbffff;stroke:#ffffff;stroke-linecap:round;stroke-linejoin:round;stroke-width:0.5}
		.st3 {fill:#ffffff;stroke:#5b9bd5;stroke-linecap:round;stroke-linejoin:round;stroke-width:0.5}
		.st4 {fill:#5c9bd4;font-family:Calibri;font-size:1.33333em}
		.st5 {font-size:1em}
		.st6 {fill:#ffffff}
		.st7 {stroke:none;stroke-linecap:round;stroke-linejoin:round;stroke-width:0.5}
		.st8 {stroke:#5b9bd5;stroke-linecap:round;stroke-linejoin:round;stroke-width:0.24}
		.st9 {fill:#ffffff;stroke:none;stroke-linecap:round;stroke-linejoin:round;stroke-width:0.24;visibility:hidden}
		.st10 {fill:none;stroke:none;stroke-linecap:round;stroke-linejoin:round;stroke-width:0.5}
		.st11 {fill:#5b9bd5;font-family:Calibri;font-size:1.99999em}
		.st12 {fill:#ffffff;stroke:none;stroke-linecap:butt;stroke-width:7.2}
		.st13 {fill:#5c9bd4;font-family:Calibri;font-size:1.00001em}
		.st14 {fill:#5b9ad4;font-family:Calibri;font-size:1.33333em}
		.st15 {marker-end:url(#mrkr4-128);stroke:#5692c9;stroke-linecap:round;stroke-linejoin:round;stroke-width:0.5}
		.st16 {fill:#5692c9;fill-opacity:1;stroke:#5692c9;stroke-opacity:1;stroke-width:0.16556291390728}
		.st17 {fill:#41729d;font-family:Calibri;font-size:1.00001em}
		.st18 {marker-end:url(#mrkr4-143);stroke:#5692c9;stroke-linecap:round;stroke-linejoin:round;stroke-width:0.5}
		.st19 {fill:#5b9bd5;font-family:Calibri;font-size:1.00001em}
		.st20 {fill:none;fill-rule:evenodd;font-size:12px;overflow:visible;stroke-linecap:square;stroke-miterlimit:3}
	]]>
	</style>

	<defs id="Markers">
		<g id="lend4">
			<path d="M 2 1 L 0 0 L 2 -1 L 2 1 " style="stroke:none"/>
		</g>
		<marker id="mrkr4-128" class="st16" v:arrowType="4" v:arrowSize="2" v:setback="0" refX="-0" orient="auto"
				markerUnits="strokeWidth" overflow="visible">
			<use xlink:href="#lend4" transform="scale(-6.04,-6.04) "/>
		</marker>
		<marker id="mrkr4-143" class="st16" v:arrowType="4" v:arrowSize="2" v:setback="12.08" refX="-12.08" orient="auto"
				markerUnits="strokeWidth" overflow="visible">
			<use xlink:href="#lend4" transform="scale(-6.04,-6.04) "/>
		</marker>
	</defs>
	<g v:mID="4" v:index="4" v:groupContext="foregroundPage">
		<v:userDefs>
			<v:ud v:nameU="msvThemeOrder" v:val="VT0(0):26"/>
		</v:userDefs>
		<title>simpleDSP</title>
		<v:pageProperties v:drawingScale="0.0393701" v:pageScale="0.0393701" v:drawingUnits="24" v:shadowOffsetX="8.50394"
				v:shadowOffsetY="-8.50394"/>
		<v:layer v:name="连接线" v:index="0"/>
		<g id="shape48-1" v:mID="48" v:groupContext="shape" transform="translate(78.2148,-356.815)">
			<title>框.48</title>
			<v:userDefs>
				<v:ud v:nameU="visVersion" v:val="VT0(15):26"/>
			</v:userDefs>
			<rect x="0" y="375.065" width="666.142" height="467.717" class="st1"/>
		</g>
		<g id="shape49-3" v:mID="49" v:groupContext="shape" transform="translate(78.2148,-18.25)">
			<title>框.49</title>
			<v:userDefs>
				<v:ud v:nameU="visVersion" v:val="VT0(15):26"/>
			</v:userDefs>
			<rect x="0" y="504.217" width="666.142" height="338.565" class="st2"/>
		</g>
		<g id="shape1-5" v:mID="1" v:groupContext="shape" transform="translate(342.393,-694.488)">
			<title>框</title>
			<desc>Sample Clk Gen</desc>
			<v:userDefs>
				<v:ud v:nameU="visVersion" v:val="VT0(15):26"/>
			</v:userDefs>
			<v:textBlock v:margins="rect(4,4,4,4)" v:tabSpace="42.5197"/>
			<v:textRect cx="68.8927" cy="813.895" width="137.79" height="57.7728"/>
			<rect x="0" y="785.009" width="137.785" height="57.7728" class="st3"/>
			<text x="33.43" y="809.1" class="st4" v:langID="1033"><v:paragraph v:horizAlign="1"/><v:tabList/>Sample Clk<v:newlineChar/><tspan
						x="55.66" dy="1.2em" class="st5">Gen</tspan></text>		</g>
		<g id="shape2-9" v:mID="2" v:groupContext="shape" transform="translate(116.01,-569.413)">
			<title>框.2</title>
			<desc>sample</desc>
			<v:userDefs>
				<v:ud v:nameU="visVersion" v:val="VT0(15):26"/>
			</v:userDefs>
			<v:textBlock v:margins="rect(4,4,4,4)" v:tabSpace="42.5197"/>
			<v:textRect cx="137.008" cy="800.262" width="274.02" height="85.0394"/>
			<rect x="0" y="757.742" width="274.016" height="85.0394" class="st3"/>
			<text x="113.64" y="805.06" class="st4" v:langID="1033"><v:paragraph v:horizAlign="1"/><v:tabList/>sample</text>		</g>
		<g id="shape9-12" v:mID="9" v:groupContext="shape" transform="translate(275.811,-176.792)">
			<title>框.9</title>
			<desc>FFT/IFFT</desc>
			<v:userDefs>
				<v:ud v:nameU="visVersion" v:val="VT0(15):26"/>
			</v:userDefs>
			<v:textBlock v:margins="rect(4,4,4,4)" v:tabSpace="42.5197"/>
			<v:textRect cx="56.6929" cy="800.262" width="113.39" height="85.0394"/>
			<rect x="0" y="757.742" width="113.386" height="85.0394" class="st3"/>
			<text x="29.09" y="805.06" class="st4" v:langID="1033"><v:paragraph v:horizAlign="1"/><v:tabList/>FFT<tspan class="st5"
						v:langID="2052">/IFFT</tspan></text>		</g>
		<g id="shape10-16" v:mID="10" v:groupContext="shape" transform="translate(435.596,-176.792)">
			<title>框.10</title>
			<desc>RAM fre</desc>
			<v:userDefs>
				<v:ud v:nameU="visVersion" v:val="VT0(15):26"/>
			</v:userDefs>
			<v:textBlock v:margins="rect(4,4,4,4)" v:tabSpace="42.5197"/>
			<v:textRect cx="56.6929" cy="800.262" width="113.39" height="85.0394"/>
			<rect x="0" y="757.742" width="113.386" height="85.0394" class="st3"/>
			<text x="40.88" y="795.46" class="st4" v:langID="1033"><v:paragraph v:horizAlign="1"/><v:tabList/>RAM<v:newlineChar/><tspan
						x="47.48" dy="1.2em" class="st5">fre</tspan></text>		</g>
		<g id="shape3-20" v:mID="3" v:groupContext="shape" transform="translate(437.27,-569.413)">
			<title>框.3</title>
			<desc>FIR</desc>
			<v:userDefs>
				<v:ud v:nameU="visVersion" v:val="VT0(15):26"/>
			</v:userDefs>
			<v:textBlock v:margins="rect(4,4,4,4)" v:tabSpace="42.5197"/>
			<v:textRect cx="56.6929" cy="800.262" width="113.39" height="85.0394"/>
			<rect x="0" y="757.742" width="113.386" height="85.0394" class="st3"/>
			<text x="46.66" y="805.06" class="st4" v:langID="1033"><v:paragraph v:horizAlign="1"/><v:tabList/>FIR</text>		</g>
		<g id="shape139-23" v:mID="139" v:groupContext="shape" transform="translate(389.197,-190.966)">
			<title>一维双向箭头</title>
			<v:userDefs>
				<v:ud v:nameU="visVersion" v:val="VT0(15):26"/>
			</v:userDefs>
			<path d="M11.6 800.26 L11.6 786.09 L0 814.44 L11.6 842.78 L11.6 828.61 L34.8 828.61 L34.8 842.78 L46.4 814.44 L34.8 786.09
						 L34.8 800.26 L11.6 800.26 Z" class="st3"/>
		</g>
		<g id="group40-25" transform="translate(987.326,274.273) rotate(90.0637)" v:mID="40" v:groupContext="group">
			<v:userDefs>
				<v:ud v:nameU="visVersion" v:val="VT0(15):26"/>
			</v:userDefs>
			<title>一维单向箭头.40</title>
			<g id="shape41-26" v:mID="41" v:groupContext="shape">
				<title>工作表.41</title>
				<path d="M0 828.61 L155.91 828.61 L155.91 842.78 L170.08 814.44 L155.91 786.09 L155.91 800.26 L0 800.26 L0 828.61
							 Z" class="st6"/>
				<path d="M0 828.61 L155.91 828.61 L155.91 842.78 L170.08 814.44 L155.91 786.09 L155.91 800.26 L0 800.26"
						class="st7"/>
			</g>
			<g id="shape42-29" v:mID="42" v:groupContext="shape">
				<title>工作表.42</title>
				<path d="M0 828.61 L155.91 828.61 L155.91 842.78 L170.08 814.44 L155.91 786.09 L155.91 800.26 L0 800.26 L0 828.61"
						class="st8"/>
			</g>
			<g id="shape43-32" v:mID="43" v:groupContext="shape" transform="translate(-2.18079,-14.4132)">
				<title>工作表.43</title>
				<rect x="0" y="814.915" width="0.960001" height="27.8665" class="st9"/>
			</g>
		</g>
		<g id="group44-34" transform="translate(1147.77,273.659) rotate(90.0205)" v:mID="44" v:groupContext="group">
			<v:userDefs>
				<v:ud v:nameU="visVersion" v:val="VT0(15):26"/>
			</v:userDefs>
			<title>一维单向箭头.44</title>
			<g id="shape45-35" v:mID="45" v:groupContext="shape">
				<title>工作表.45</title>
				<path d="M0 828.61 L155.91 828.61 L155.91 842.78 L170.08 814.44 L155.91 786.09 L155.91 800.26 L0 800.26 L0 828.61
							 Z" class="st6"/>
				<path d="M0 828.61 L155.91 828.61 L155.91 842.78 L170.08 814.44 L155.91 786.09 L155.91 800.26 L0 800.26"
						class="st7"/>
			</g>
			<g id="shape46-38" v:mID="46" v:groupContext="shape">
				<title>工作表.46</title>
				<path d="M0 828.61 L155.91 828.61 L155.91 842.78 L170.08 814.44 L155.91 786.09 L155.91 800.26 L0 800.26 L0 828.61"
						class="st8"/>
			</g>
			<g id="shape47-41" v:mID="47" v:groupContext="shape" transform="translate(-2.18079,-14.4132)">
				<title>工作表.47</title>
				<rect x="0" y="814.915" width="0.96" height="27.8665" class="st9"/>
			</g>
		</g>
		<g id="shape54-43" v:mID="54" v:groupContext="shape" transform="translate(606.571,-766.759)">
			<title>工作表.54</title>
			<desc>Sample Clk Domain</desc>
			<v:textBlock v:margins="rect(4,4,4,4)" v:tabSpace="42.5197"/>
			<v:textRect cx="68.8927" cy="813.895" width="137.79" height="57.7728"/>
			<rect x="0" y="785.009" width="137.785" height="57.7728" class="st10"/>
			<text x="15.7" y="806.7" class="st11" v:langID="1033"><v:paragraph v:horizAlign="1"/><v:tabList/>Sample Clk<v:newlineChar/><tspan
						x="30.79" dy="1.2em" class="st5">Domain</tspan></text>		</g>
		<g id="shape56-47" v:mID="56" v:groupContext="shape" transform="translate(640.356,-18.25)">
			<title>工作表.56</title>
			<desc>Sys Clk Domain</desc>
			<v:textBlock v:margins="rect(4,4,4,4)" v:tabSpace="42.5197"/>
			<v:textRect cx="52" cy="813.895" width="104" height="57.7728"/>
			<rect x="0" y="785.009" width="104" height="57.7728" class="st10"/>
			<text x="19.04" y="806.7" class="st11" v:langID="1033"><v:paragraph v:horizAlign="1"/><v:tabList/>Sys Clk<v:newlineChar/><tspan
						x="13.9" dy="1.2em" class="st5">Domain</tspan></text>		</g>
		<g id="group66-51" transform="translate(20.6929,-583.587)" v:mID="66" v:groupContext="group">
			<v:userDefs>
				<v:ud v:nameU="visVersion" v:val="VT0(15):26"/>
			</v:userDefs>
			<title>一维单向箭头.66</title>
			<desc>ADC_Data</desc>
			<g id="shape67-52" v:mID="67" v:groupContext="shape">
				<title>工作表.67</title>
				<path d="M0 828.61 L81.14 828.61 L81.14 842.78 L95.32 814.44 L81.14 786.09 L81.14 800.26 L0 800.26 L0 828.61 Z"
						class="st6"/>
				<path d="M0 828.61 L81.14 828.61 L81.14 842.78 L95.32 814.44 L81.14 786.09 L81.14 800.26 L0 800.26" class="st7"/>
			</g>
			<g id="shape68-55" v:mID="68" v:groupContext="shape">
				<title>工作表.68</title>
				<path d="M0 828.61 L81.14 828.61 L81.14 842.78 L95.32 814.44 L81.14 786.09 L81.14 800.26 L0 800.26 L0 828.61"
						class="st8"/>
			</g>
			<g id="shape69-58" v:mID="69" v:groupContext="shape" transform="translate(-1.22218,-14.4132)">
				<title>工作表.69</title>
				<rect x="0" y="814.915" width="0.538012" height="27.8665" class="st9"/>
			</g>
			<g id="shape66-60" v:mID="66" v:groupContext="groupContent">
				<v:textBlock v:margins="rect(4,4,4,4)" v:tabSpace="42.5197"/>
				<v:textRect cx="47.6586" cy="814.435" width="95.32" height="56.6929"/>
				<rect v:rectContext="textBkgnd" x="22.8587" y="807.235" width="49.5997" height="14.4001" class="st12"/>
				<text x="22.86" y="818.04" class="st13" v:langID="1033"><v:paragraph v:horizAlign="1"/><v:tabList/>ADC_Data</text>			</g>
		</g>
		<g id="shape83-63" v:mID="83" v:groupContext="shape" transform="translate(117.805,-45.0039)">
			<title>框.83</title>
			<desc>SPI_IF</desc>
			<v:userDefs>
				<v:ud v:nameU="visVersion" v:val="VT0(15):26"/>
			</v:userDefs>
			<v:textBlock v:margins="rect(4,4,4,4)" v:tabSpace="42.5197"/>
			<v:textRect cx="215.528" cy="800.262" width="431.06" height="85.0394"/>
			<rect x="0" y="757.742" width="431.055" height="85.0394" class="st3"/>
			<text x="196.03" y="805.06" class="st4" v:langID="2052"><v:paragraph v:horizAlign="1"/><v:tabList/>SPI_IF</text>		</g>
		<g id="shape84-66" v:mID="84" v:groupContext="shape" transform="translate(437.27,-449.953)">
			<title>框.84</title>
			<desc>Wave Gen</desc>
			<v:userDefs>
				<v:ud v:nameU="visVersion" v:val="VT0(15):26"/>
			</v:userDefs>
			<v:textBlock v:margins="rect(4,4,4,4)" v:tabSpace="42.5197"/>
			<v:textRect cx="56.6929" cy="800.262" width="113.39" height="85.0394"/>
			<rect x="0" y="757.742" width="113.386" height="85.0394" class="st3"/>
			<text x="23.11" y="805.06" class="st4" v:langID="2052"><v:paragraph v:horizAlign="1"/><v:tabList/>Wave Gen</text>		</g>
		<g id="shape86-69" v:mID="86" v:groupContext="shape" transform="translate(597.9,-314.295)">
			<title>框.86</title>
			<desc>FIR coefficient</desc>
			<v:userDefs>
				<v:ud v:nameU="visVersion" v:val="VT0(15):26"/>
			</v:userDefs>
			<v:textBlock v:margins="rect(4,4,4,4)" v:tabSpace="42.5197"/>
			<v:textRect cx="56.6929" cy="800.262" width="113.39" height="85.0394"/>
			<rect x="0" y="757.742" width="113.386" height="85.0394" class="st3"/>
			<text x="10.47" y="805.06" class="st4" v:langID="1033"><v:paragraph v:horizAlign="1"/><v:tabList/>FIR coefficient</text>		</g>
		<g id="group88-72" transform="translate(-320.472,443.447) rotate(-90)" v:mID="88" v:groupContext="group">
			<v:userDefs>
				<v:ud v:nameU="visVersion" v:val="VT0(15):26"/>
			</v:userDefs>
			<title>一维单向箭头</title>
			<g id="shape89-73" v:mID="89" v:groupContext="shape">
				<title>工作表.89</title>
				<path d="M0 828.61 L36.45 828.61 L36.45 842.78 L50.62 814.44 L36.45 786.09 L36.45 800.26 L0 800.26 L0 828.61 Z"
						class="st6"/>
				<path d="M0 828.61 L36.45 828.61 L36.45 842.78 L50.62 814.44 L36.45 786.09 L36.45 800.26 L0 800.26" class="st7"/>
			</g>
			<g id="shape90-76" v:mID="90" v:groupContext="shape">
				<title>工作表.90</title>
				<path d="M0 828.61 L36.45 828.61 L36.45 842.78 L50.62 814.44 L36.45 786.09 L36.45 800.26 L0 800.26 L0 828.61"
						class="st8"/>
			</g>
			<g id="shape91-79" v:mID="91" v:groupContext="shape" transform="translate(-0.649044,-14.4132)">
				<title>工作表.91</title>
				<rect x="0" y="814.915" width="0.285714" height="27.8665" class="st9"/>
			</g>
		</g>
		<g id="group99-81" transform="translate(390.026,-583.587) rotate(3.58691E-06)" v:mID="99" v:groupContext="group">
			<v:userDefs>
				<v:ud v:nameU="visVersion" v:val="VT0(15):26"/>
			</v:userDefs>
			<title>一维单向箭头.99</title>
			<g id="shape100-82" v:mID="100" v:groupContext="shape">
				<title>工作表.100</title>
				<path d="M0 828.61 L33.07 828.61 L33.07 842.78 L47.24 814.44 L33.07 786.09 L33.07 800.26 L0 800.26 L0 828.61 Z"
						class="st6"/>
				<path d="M0 828.61 L33.07 828.61 L33.07 842.78 L47.24 814.44 L33.07 786.09 L33.07 800.26 L0 800.26" class="st7"/>
			</g>
			<g id="shape101-85" v:mID="101" v:groupContext="shape">
				<title>工作表.101</title>
				<path d="M0 828.61 L33.07 828.61 L33.07 842.78 L47.24 814.44 L33.07 786.09 L33.07 800.26 L0 800.26 L0 828.61"
						class="st8"/>
			</g>
			<g id="shape102-88" v:mID="102" v:groupContext="shape" transform="translate(-0.605774,-14.4132)">
				<title>工作表.102</title>
				<rect x="0" y="814.915" width="0.266667" height="27.8665" class="st9"/>
			</g>
		</g>
		<g id="shape103-90" v:mID="103" v:groupContext="shape" transform="translate(1440.68,188.329) rotate(90)">
			<title>梯形</title>
			<desc>MUX</desc>
			<v:userDefs>
				<v:ud v:nameU="visVersion" v:prompt="" v:val="VT0(15):26"/>
			</v:userDefs>
			<v:textBlock v:margins="rect(4,4,4,4)" v:tabSpace="42.5197"/>
			<v:textRect cx="102.25" cy="814.435" width="204.5" height="56.6929"/>
			<path d="M0 842.78 L204.5 842.78 L184.05 786.09 L20.45 786.09 L0 842.78 Z" class="st3"/>
			<text x="86.12" y="819.24" class="st14" v:langID="2052"><v:paragraph v:horizAlign="1"/><v:tabList/>MUX</text>		</g>
		<g id="group104-93" transform="translate(550.656,-583.587) rotate(4.41571E-06)" v:mID="104" v:groupContext="group">
			<v:userDefs>
				<v:ud v:nameU="visVersion" v:val="VT0(15):26"/>
			</v:userDefs>
			<title>一维单向箭头.104</title>
			<g id="shape105-94" v:mID="105" v:groupContext="shape">
				<title>工作表.105</title>
				<path d="M0 828.61 L33.07 828.61 L33.07 842.78 L47.24 814.44 L33.07 786.09 L33.07 800.26 L0 800.26 L0 828.61 Z"
						class="st6"/>
				<path d="M0 828.61 L33.07 828.61 L33.07 842.78 L47.24 814.44 L33.07 786.09 L33.07 800.26 L0 800.26" class="st7"/>
			</g>
			<g id="shape106-97" v:mID="106" v:groupContext="shape">
				<title>工作表.106</title>
				<path d="M0 828.61 L33.07 828.61 L33.07 842.78 L47.24 814.44 L33.07 786.09 L33.07 800.26 L0 800.26 L0 828.61"
						class="st8"/>
			</g>
			<g id="shape107-100" v:mID="107" v:groupContext="shape" transform="translate(-0.605774,-14.4132)">
				<title>工作表.107</title>
				<rect x="0" y="814.915" width="0.266667" height="27.8665" class="st9"/>
			</g>
		</g>
		<g id="group108-102" transform="translate(548.562,-464.124) rotate(-0.147307)" v:mID="108" v:groupContext="group">
			<v:userDefs>
				<v:ud v:nameU="visVersion" v:val="VT0(15):26"/>
			</v:userDefs>
			<title>一维单向箭头.108</title>
			<g id="shape109-103" v:mID="109" v:groupContext="shape">
				<title>工作表.109</title>
				<path d="M0 828.61 L33.07 828.61 L33.07 842.78 L47.24 814.44 L33.07 786.09 L33.07 800.26 L0 800.26 L0 828.61 Z"
						class="st6"/>
				<path d="M0 828.61 L33.07 828.61 L33.07 842.78 L47.24 814.44 L33.07 786.09 L33.07 800.26 L0 800.26" class="st7"/>
			</g>
			<g id="shape110-106" v:mID="110" v:groupContext="shape">
				<title>工作表.110</title>
				<path d="M0 828.61 L33.07 828.61 L33.07 842.78 L47.24 814.44 L33.07 786.09 L33.07 800.26 L0 800.26 L0 828.61"
						class="st8"/>
			</g>
			<g id="shape111-109" v:mID="111" v:groupContext="shape" transform="translate(-0.605776,-14.4132)">
				<title>工作表.111</title>
				<rect x="0" y="814.915" width="0.266668" height="27.8665" class="st9"/>
			</g>
		</g>
		<g id="group116-111" transform="translate(654.593,-513.632)" v:mID="116" v:groupContext="group">
			<v:userDefs>
				<v:ud v:nameU="visVersion" v:val="VT0(15):26"/>
			</v:userDefs>
			<title>一维单向箭头.116</title>
			<desc>DAC_Data</desc>
			<g id="shape117-112" v:mID="117" v:groupContext="shape">
				<title>工作表.117</title>
				<path d="M0 828.61 L113.63 828.61 L113.63 842.78 L127.81 814.44 L113.63 786.09 L113.63 800.26 L0 800.26 L0 828.61
							 Z" class="st6"/>
				<path d="M0 828.61 L113.63 828.61 L113.63 842.78 L127.81 814.44 L113.63 786.09 L113.63 800.26 L0 800.26"
						class="st7"/>
			</g>
			<g id="shape118-115" v:mID="118" v:groupContext="shape">
				<title>工作表.118</title>
				<path d="M0 828.61 L113.63 828.61 L113.63 842.78 L127.81 814.44 L113.63 786.09 L113.63 800.26 L0 800.26 L0 828.61"
						class="st8"/>
			</g>
			<g id="shape119-118" v:mID="119" v:groupContext="shape" transform="translate(-1.63878,-14.4132)">
				<title>工作表.119</title>
				<rect x="0" y="814.915" width="0.721404" height="27.8665" class="st9"/>
			</g>
			<g id="shape116-120" v:mID="116" v:groupContext="groupContent">
				<v:textBlock v:margins="rect(4,4,4,4)" v:tabSpace="42.5197"/>
				<v:textRect cx="63.9039" cy="814.435" width="127.81" height="56.6929"/>
				<rect v:rectContext="textBkgnd" x="39.1042" y="807.235" width="49.5997" height="14.4001" class="st12"/>
				<text x="39.1" y="818.04" class="st13" v:langID="2052"><v:paragraph v:horizAlign="1"/><v:tabList/>DAC_Data</text>			</g>
		</g>
		<g id="shape127-123" v:mID="127" v:groupContext="shape" v:layerMember="0" transform="translate(342.393,-717.26)">
			<title>动态连接线</title>
			<desc>ADC_Clk</desc>
			<v:textBlock v:margins="rect(4,4,4,4)" v:tabSpace="42.5197"/>
			<v:textRect cx="-296.206" cy="823.034" width="60.01" height="22.4037"/>
			<path d="M0 836.67 L-310.95 836.67 L-310.95 834.72" class="st15"/>
			<rect v:rectContext="textBkgnd" x="-316.86" y="815.834" width="41.3086" height="14.4001" class="st12"/>
			<text x="-316.86" y="826.63" class="st17" v:langID="2052"><v:paragraph v:horizAlign="1"/><v:tabList/>ADC_Clk</text>		</g>
		<g id="shape128-131" v:mID="128" v:groupContext="shape" v:layerMember="0" transform="translate(480.178,-717.26)">
			<title>动态连接线.128</title>
			<desc>DAC_Clk</desc>
			<v:textBlock v:margins="rect(4,4,4,4)" v:tabSpace="42.5197"/>
			<v:textRect cx="290.082" cy="823.034" width="60.01" height="22.4037"/>
			<path d="M0 836.67 L301.03 836.67 L301.03 834.72" class="st15"/>
			<rect v:rectContext="textBkgnd" x="269.428" y="815.834" width="41.3086" height="14.4001" class="st12"/>
			<text x="269.43" y="826.63" class="st17" v:langID="2052"><v:paragraph v:horizAlign="1"/><v:tabList/>DAC_Clk</text>		</g>
		<g id="shape129-138" v:mID="129" v:groupContext="shape" v:layerMember="0" transform="translate(332.504,-176.792)">
			<title>动态连接线.129</title>
			<path d="M0 842.78 L0 870.42 L441.83 870.42" class="st18"/>
		</g>
		<g id="shape131-144" v:mID="131" v:groupContext="shape" transform="translate(733.128,-154.079)">
			<title>工作表.131</title>
			<desc>Interrupt</desc>
			<v:textBlock v:margins="rect(4,4,4,4)" v:tabSpace="42.5197"/>
			<v:textRect cx="33.0866" cy="834.782" width="66.18" height="16"/>
			<rect x="0" y="826.782" width="66.1732" height="16" class="st10"/>
			<text x="10.93" y="838.38" class="st19" v:langID="2052"><v:paragraph v:horizAlign="1"/><v:tabList/>Interrupt</text>		</g>
		<g id="shape132-147" v:mID="132" v:groupContext="shape" v:layerMember="0" transform="translate(134.079,-569.413)">
			<title>动态连接线.132</title>
			<path d="M0 842.78 L0 893.01 L-34.12 893.01 L-34.12 1263.04 L636.01 1263.04" class="st18"/>
		</g>
		<g id="shape134-152" v:mID="134" v:groupContext="shape" transform="translate(116.01,-314.295)">
			<title>框.8</title>
			<desc>FIFO wave</desc>
			<v:userDefs>
				<v:ud v:nameU="visVersion" v:val="VT0(15):26"/>
			</v:userDefs>
			<v:textBlock v:margins="rect(4,4,4,4)" v:tabSpace="42.5197"/>
			<v:textRect cx="56.6929" cy="800.262" width="113.39" height="85.0394"/>
			<rect x="0" y="757.742" width="113.386" height="85.0394" class="st3"/>
			<text x="42.03" y="795.46" class="st4" v:langID="1033"><v:paragraph v:horizAlign="1"/><v:tabList/>FIFO<v:newlineChar/><tspan
						x="39.55" dy="1.2em" class="st5" v:langID="2052">wave</tspan></text>		</g>
		<g id="shape137-156" v:mID="137" v:groupContext="shape" transform="translate(276.656,-314.295)">
			<title>框.137</title>
			<desc>RAM wave</desc>
			<v:userDefs>
				<v:ud v:nameU="visVersion" v:val="VT0(15):26"/>
			</v:userDefs>
			<v:textBlock v:margins="rect(4,4,4,4)" v:tabSpace="42.5197"/>
			<v:textRect cx="137.008" cy="800.262" width="274.02" height="85.0394"/>
			<rect x="0" y="757.742" width="274.016" height="85.0394" class="st3"/>
			<text x="121.2" y="795.46" class="st4" v:langID="1033"><v:paragraph v:horizAlign="1"/><v:tabList/>RAM<v:newlineChar/><tspan
						x="119.86" dy="1.2em" class="st5" v:langID="2052">wave</tspan></text>		</g>
		<g id="shape140-160" v:mID="140" v:groupContext="shape" transform="translate(1146.94,528.486) rotate(90)">
			<title>一维双向箭头.140</title>
			<v:userDefs>
				<v:ud v:nameU="visVersion" v:val="VT0(15):26"/>
			</v:userDefs>
			<path d="M13.12 800.26 L13.12 786.09 L0 814.44 L13.12 842.78 L13.12 828.61 L39.35 828.61 L39.35 842.78 L52.46 814.44
						 L39.35 786.09 L39.35 800.26 L13.12 800.26 Z" class="st3"/>
		</g>
	</g>
</svg>
